# WaveFront *.obj file (generated by CINEMA 4D)

mtllib ./3g.mtl

v -8.71817874908447 249.46430969238281 55.25540924072266
v 20.14932060241699 199.46430969238281 55.25540924072266
v -37.58567810058594 199.46430969238281 55.25540924072266
v 95.20481872558594 69.46430206298828 55.25540924072266
v -112.64118194580078 69.46430206298828 55.25540924072266
v -75.11367797851562 134.46430969238281 55.25540924072266
v 57.67732238769531 134.46430969238281 55.25540924072266
v 207.78831481933594 4.46430397033691 55.25540924072266
v 132.73281860351562 134.46430969238281 55.25540924072266
v 206.28181457519531 134.46430969238281 55.25540924072266
v 206.28181457519531 199.46430969238281 55.25540924072266
v 95.20481872558594 199.46430969238281 55.25540924072266
v -8.71817874908447 379.46429443359375 55.25540924072266
v -112.64118194580078 199.46430969238281 55.25540924072266
v -223.71818542480469 199.46430969238281 55.25540924072266
v -223.71818542480469 134.46430969238281 55.25540924072266
v -150.16917419433594 134.46430969238281 55.25540924072266
v -225.22468566894531 4.46430397033691 55.25540924072266
v -8.71817874908447 249.46430969238281 -43.74459075927734
v 20.14932060241699 199.46430969238281 -43.74459075927734
v -37.58567810058594 199.46430969238281 -43.74459075927734
v 95.20481872558594 69.46430206298828 -43.74459075927734
v -112.64118194580078 69.46430206298828 -43.74459075927734
v -75.11367797851562 134.46430969238281 -43.74459075927734
v 57.67732238769531 134.46430969238281 -43.74459075927734
v 207.78831481933594 4.46430397033691 -43.74459075927734
v 132.73281860351562 134.46430969238281 -43.74459075927734
v 206.28181457519531 134.46430969238281 -43.74459075927734
v 206.28181457519531 199.46430969238281 -43.74459075927734
v 95.20481872558594 199.46430969238281 -43.74459075927734
v -8.71817874908447 379.46429443359375 -43.74459075927734
v -112.64118194580078 199.46430969238281 -43.74459075927734
v -223.71818542480469 199.46430969238281 -43.74459075927734
v -223.71818542480469 134.46430969238281 -43.74459075927734
v -150.16917419433594 134.46430969238281 -43.74459075927734
v -225.22468566894531 4.46430397033691 -43.74459075927734
# 36 vertices

vn -0.8660255074501 -0.49999982118607 0
vn 0 1 0
vn 0.8660255074501 -0.49999982118607 0
vn 0.86602693796158 -0.49999728798866 0
vn 0 -1 0
vn -0.86602693796158 -0.49999728798866 0
vn 0.8660255074501 0.49999979138374 0
vn 1 0 0
vn 0.8660255074501 0.49999982118607 0
vn -0.8660255074501 0.49999982118607 0
vn -1 0 0
vn -0.8660255074501 0.49999979138374 0
vn 0 0 1
vn 0 0 0
vn 0 0 1
vn 0 0 -1
# 16 normals

vt 0 1 0
vt 0.33333337306976 1 0
vt 0.33333337306976 0 0
vt 0 0 0
vt 0.66666662693024 1 0
vt 0.66666662693024 0 0
vt 1 1 0
vt 1 0 0
vt 0.42352914810181 1 0
vt 0.42352914810181 0 0
vt 0.57647001743317 1 0
vt 0.57647001743317 0 0
vt 0.84705913066864 1 0
vt 0.84705913066864 0 0
vt 0.0910768955946 1 0
vt 0.0910768955946 0 0
vt 0.13570128381252 1 0
vt 0.13570128381252 0 0
vt 0.1751387566328 1 0
vt 0.1751387566328 0 0
vt 0.24253250658512 1 0
vt 0.24253250658512 0 0
vt 0.36863899230957 1 0
vt 0.36863899230957 0 0
vt 0.49474546313286 1 0
vt 0.49474546313286 0 0
vt 0.56213921308517 1 0
vt 0.56213921308517 0 0
vt 0.60157668590546 1 0
vt 0.60157668590546 0 0
vt 0.64620107412338 1 0
vt 0.64620107412338 0 0
vt 0.73727798461914 1 0
vt 0.73727798461914 0 0
vt 0 0.13397526741028 0
vt 0.17333313822746 0.43419718742371 0
vt 0.26000028848648 0.28408622741699 0
vt 1 0.13397526741028 0
vt 0.26000028848648 0.58430808782578 0
vt 0.34666627645493 0.43419718742371 0
vt 0.00347911030985 0.43419718742371 0
vt 0.00347911030985 0.58430808782578 0
vt 0.5 1 0
vt 0.5 0.69977807998657 0
vt 0.43333339691162 0.58430808782578 0
vt 0.73999971151352 0.58430808782578 0
vt 0.99652087688446 0.58430808782578 0
vt 0.82666689157486 0.43419718742371 0
vt 0.65333372354507 0.43419718742371 0
vt 0.56666660308838 0.58430808782578 0
vt 0.99652087688446 0.43419718742371 0
vt 0.73999971151352 0.28408622741699 0
# 52 texture coordinates

o Extrude.1
usemtl default
f 19/4/1 20/3/1 2/2/1 1/1/1
f 20/3/2 21/6/2 3/5/2 2/2/2
f 21/6/3 19/8/3 1/7/3 3/5/3
f 22/4/2 23/10/2 5/9/2 4/1/2
f 23/10/4 24/12/4 6/11/4 5/9/4
f 24/12/5 25/14/5 7/13/5 6/11/5
f 25/14/6 22/8/6 4/7/6 7/13/6
f 26/4/7 27/16/7 9/15/7 8/1/7
f 27/16/5 28/18/5 10/17/5 9/15/5
f 28/18/8 29/20/8 11/19/8 10/17/8
f 29/20/2 30/22/2 12/21/2 11/19/2
f 30/22/9 31/24/9 13/23/9 12/21/9
f 31/24/10 32/26/10 14/25/10 13/23/10
f 32/26/2 33/28/2 15/27/2 14/25/2
f 33/28/11 34/30/11 16/29/11 15/27/11
f 34/30/5 35/32/5 17/31/5 16/29/5
f 35/32/12 36/34/12 18/33/12 17/31/12
f 36/34/5 26/8/5 8/7/5 18/33/5
f 5/37/13 17/36/13 18/35/13
f 8/38/13 5/37/13 18/35/13
f 6/40/13 14/39/13 17/36/13
f 5/37/13 6/40/13 17/36/13
f 15/42/13 16/41/13 17/36/13
f 14/39/13 15/42/13 17/36/13
f 1/44/13 13/43/13 14/39/13
f 3/45/13 1/44/13 14/39/13
f 6/40/13 3/45/13 14/39/13
f 1/44/13 12/46/13 13/43/13
f 9/48/13 11/47/13 12/46/13
f 7/49/13 9/48/13 12/46/13
f 2/50/13 7/49/13 12/46/13
f 1/44/13 2/50/13 12/46/13
f 9/48/13 10/51/15 11/47/13
f 4/52/13 8/38/13 9/48/13
f 7/49/13 4/52/13 9/48/13
f 4/52/13 5/37/13 8/38/13
f 7/49/13 2/50/13 3/45/13
f 6/40/13 7/49/13 3/45/13
f 22/52/16 27/48/16 26/38/16
f 23/37/16 22/52/16 26/38/16
f 36/35/16 23/37/16 26/38/16
f 29/47/16 28/51/16 27/48/16
f 30/46/16 29/47/16 27/48/16
f 25/49/16 30/46/16 27/48/16
f 22/52/16 25/49/16 27/48/16
f 19/44/16 31/43/16 30/46/16
f 20/50/16 19/44/16 30/46/16
f 25/49/16 20/50/16 30/46/16
f 19/44/16 32/39/16 31/43/16
f 21/45/16 24/40/16 32/39/16
f 19/44/16 21/45/16 32/39/16
f 35/36/16 33/42/16 32/39/16
f 24/40/16 35/36/16 32/39/16
f 35/36/16 34/41/16 33/42/16
f 24/40/16 23/37/16 35/36/16
f 23/37/16 36/35/16 35/36/16
f 24/40/16 21/45/16 20/50/16
f 25/49/16 24/40/16 20/50/16

